<svg width="24" height="24" viewBox="0 0 24 24" fill="none" xmlns="http://www.w3.org/2000/svg">
<path d="M21 11.501C21.0034 12.8209 20.6951 14.1229 20.1 15.301C19.3944 16.7128 18.3098 17.9002 16.9674 18.7303C15.6251 19.5604 14.0782 20.0004 12.5 20.001C11.1801 20.0044 9.87812 19.6961 8.7 19.101L3 21.001L4.9 15.301C4.30493 14.1229 3.99656 12.8209 4 11.501C4.00061 9.92276 4.44061 8.37586 5.27072 7.03356C6.10083 5.69125 7.28825 4.60657 8.7 3.90101C9.87812 3.30594 11.1801 2.99756 12.5 3.00101H13C15.0843 3.116 17.053 3.99577 18.5291 5.47186C20.0052 6.94796 20.885 8.91666 21 11.001V11.501Z" stroke="#0B0D14" stroke-width="1.8" stroke-linecap="round" stroke-linejoin="round"/>
</svg>
