<svg width="24" height="24" viewBox="0 0 24 24" fill="none" xmlns="http://www.w3.org/2000/svg">
<path d="M19 21.001V5.00098C19 3.89641 18.1046 3.00098 17 3.00098H7C5.89543 3.00098 5 3.89641 5 5.00098V21.001M19 21.001L21 21.0009M19 21.001H14M5 21.001L3 21.0009M5 21.001H10M9 7.00095H10M9 11.001H10M14 7.00095H15M14 11.001H15M10 21.001V16.001C10 15.4487 10.4477 15.001 11 15.001H13C13.5523 15.001 14 15.4487 14 16.001V21.001M10 21.001H14" stroke="#111827" stroke-width="1.8" stroke-linecap="round" stroke-linejoin="round"/>
</svg>
